<?xml version="1.0" encoding="utf-8"?>
<!-- Generator: Adobe Illustrator 22.1.0, SVG Export Plug-In . SVG Version: 6.00 Build 0)  -->
<svg version="1.1" id="Layer_1" xmlns="http://www.w3.org/2000/svg" xmlns:xlink="http://www.w3.org/1999/xlink" x="0px" y="0px"
	 viewBox="0 0 144 144" style="enable-background:new 0 0 144 144;" xml:space="preserve">
<style type="text/css">
	.st0{fill:#0B1641;}
	.st1{fill:#FFFFFF;}
</style>
<title>flogo-RGB-HEX-Blk-144</title>
<path class="st0" d="M136.1,0H8C3.6,0,0,3.6,0,8v128.1c0.1,4.4,3.6,7.9,8,7.9h69V88.3H58.2V66.5h18.7v-16c0-18.6,11.4-28.7,28-28.7
	c5.6,0,11.2,0.3,16.8,0.9V42h-11.5c-9,0-10.8,4.3-10.8,10.6v13.9H121l-2.8,21.8H99.4V144H136c4.4,0,7.9-3.6,7.9-7.9V8
	C144,3.6,140.4,0,136.1,0z"/>
<path id="f" class="st1" d="M99.4,144V88.3h18.8l2.8-21.8H99.4V52.6c0-6.3,1.8-10.6,10.8-10.6h11.4V22.6c-5.6-0.6-11.2-0.9-16.8-0.9
	c-16.6,0-27.9,10.1-27.9,28.7v16H58.2v21.8h18.7V144H99.4z"/>
</svg>
