<svg xmlns="http://www.w3.org/2000/svg" viewBox="0 0 52.36 129.96"><title>guitar</title><path d="M26.19.09a3.29,3.29,0,0,0,1,.46,7.2,7.2,0,0,0,1.89.29c.28,0,.79.13.81.66S30,3.8,30,3.8l.32.05s.07-.15.17-.09.17,0,.21-.12a.44.44,0,0,0,.06-.36.3.3,0,0,1,.31-.4,1.55,1.55,0,0,1,1.83,1.2,1.34,1.34,0,0,1-1.53,1.54c-.41,0-.52-.12-.61-.39s0-.41-.13-.49-.19,0-.28-.08h-.26a.08.08,0,0,0-.06.09c0,.07.19,2.42.32,3.7,0,.1.08.12.23.12a.34.34,0,0,1,.21.05s.08,0,.12-.08.09,0,.14,0,.18-.06.22-.22a2,2,0,0,0,0-.49.31.31,0,0,1,.33-.32A1.58,1.58,0,0,1,33.43,8.9a1.5,1.5,0,0,1-1.77,1.61.48.48,0,0,1-.41-.44c0-.28,0-.44-.16-.54L31,9.5s-.22.07-.31-.05-.24,0-.24,0a.2.2,0,0,0,0,.14c0,.08.17,1.87.52,3.68,0,.1,0,.13.1.12s.19.13.19,0a.14.14,0,0,1,.19-.12c.07,0,.29,0,.27-.12a2.71,2.71,0,0,0,0-.4c0-.22.21-.23.31-.26s1.78-.14,1.91,1.14c0,.26,0,1.54-1.68,1.39a.45.45,0,0,1-.44-.35c0-.2-.06-.33-.2-.39l-.08-.1s-.16,0-.2,0a.09.09,0,0,0-.16,0,.23.23,0,0,0,0,.16,15.65,15.65,0,0,1,.34,2.35.43.43,0,0,1-.26.46A4.28,4.28,0,0,0,28.9,20.2a2.29,2.29,0,0,1,0,.64l-.05,0s0,0,0,.11l.68,44.18s0,.08.14.1,7.14,0,9.59,1.25A7.68,7.68,0,0,1,44.14,72c.14.56.81,2.76-.21,7.77-.14.64-.76,4.2-.77,5.06a10.37,10.37,0,0,0,.41,3.45,25.6,25.6,0,0,0,2.11,4c.49.77,2.81,5.07,3,5.57s2.87,6,3.3,9.72a19.93,19.93,0,0,1-1.22,11.33,14.74,14.74,0,0,1-8.48,8.22c-.42.17-5.32,2.14-15.35,2.33,0,0-.13-.06-.08,0s.17.46-.68.45-1-.18-1-.31,0-.17-.16-.16a55.75,55.75,0,0,1-10.6-1,17.65,17.65,0,0,1-10.71-5.75c-.81-1-4.37-5.52-3.71-13.2a30.06,30.06,0,0,1,2.06-8.24c.23-.56,1.09-2.64,1.76-4,.28-.56,3.62-6.73,4-7.26A8.79,8.79,0,0,0,9,84.21c-.12-1-.55-3.47-.81-4.79a19.49,19.49,0,0,1-.37-6.9,7.9,7.9,0,0,1,2.32-4.38,10.92,10.92,0,0,1,3.95-2,26.78,26.78,0,0,1,4.72-.67l3.92-.2s.16.14.17-.25c0-.21.52-44.13.52-44.13a2.28,2.28,0,0,1,0-.58,4.5,4.5,0,0,0-2.33-3.12c-.24-.12-.34-.22-.34-.71a2.4,2.4,0,0,1,0-.69c.08-.55.25-1.49.25-1.49s0-.1-.09-.1a.38.38,0,0,1-.13,0s-.05.14-.15.12-.11,0-.17.08a1,1,0,0,0-.1.47.35.35,0,0,1-.33.4c-.29,0-1.74,0-1.83-1.41A1.52,1.52,0,0,1,20,12.24c.2,0,.53.07.5.4s-.07.44,0,.54.19.09.22.13a.11.11,0,0,0,.15,0,.6.6,0,0,1,.27,0c.09,0,.1-.13.11-.28s.45-3.61.45-3.61,0-.08-.07-.09l-.27,0s-.09,0-.09,0,0,.11-.11.11-.17,0-.19,0a1.2,1.2,0,0,0-.11.32c0,.09,0,.5-.21.52s-1.61.21-1.85-1.07a1.54,1.54,0,0,1,.87-1.81,1.4,1.4,0,0,1,1.18,0,.42.42,0,0,1,.08.39.76.76,0,0,0,.07.46.49.49,0,0,0,.27.13s0,.11.09.06.19,0,.24,0,.19,0,.2,0,.25-2.78.29-3.76c0-.19-.1-.14-.16-.14h-.15s-.11,0-.11,0,0,.1-.1.14a.3.3,0,0,0-.19.19,1.65,1.65,0,0,0-.05.32c0,.14,0,.3-.38.31a1.48,1.48,0,0,1-1.76-1.06,1,1,0,0,1,.12-.74s.3-1,1.74-.84a.33.33,0,0,1,.34.34c0,.19,0,.37,0,.42s.21,0,.24.12.05.11.09,0,.16-.06.2-.06.19,0,.2,0,0-.46,0-.52.06-1.48.08-1.59,0-.78.63-.87A8.26,8.26,0,0,0,25.39.34a1.92,1.92,0,0,0,.37-.26A.32.32,0,0,1,26.19.09Z" fill="#fff" fill-rule="evenodd"/></svg>