<?xml version="1.0" encoding="utf-8"?>
<!-- Generator: Adobe Illustrator 22.1.0, SVG Export Plug-In . SVG Version: 6.00 Build 0)  -->
<svg version="1.1" id="Layer_1" xmlns="http://www.w3.org/2000/svg" xmlns:xlink="http://www.w3.org/1999/xlink" x="0px" y="0px"
	 viewBox="0 0 28.2 28.2" style="enable-background:new 0 0 28.2 28.2;" xml:space="preserve">
<style type="text/css">
	.st0{fill:#0B1641;}
</style>
<path class="st0" d="M28.2,7.2c0-0.9-0.1-1.7-0.3-2.6c-0.4-1.5-1.2-2.7-2.6-3.6c-0.7-0.4-1.4-0.7-2.2-0.9c-0.6,0-1.2-0.1-1.8-0.1
	h-0.1H7C6.9,0,6.7,0,6.5,0C5.6,0.1,4.7,0.2,3.9,0.5C2.4,1.1,1.2,2.2,0.6,3.8C0.3,4.3,0.2,4.9,0.1,5.4C0.1,5.9,0,6.3,0,6.8v0.1v14.4
	c0,0.2,0,0.3,0,0.5c0.1,1,0.2,1.9,0.6,2.8c0.8,1.7,2,2.8,3.8,3.3c0.5,0.1,1,0.2,1.5,0.3c0.7,0.1,1.3,0.1,2,0.1c4.3,0,8.6,0,13,0
	c0.6,0,1.2,0,1.8-0.1c1-0.1,1.9-0.4,2.7-1c1-0.6,1.7-1.5,2.2-2.6c0.2-0.5,0.3-1,0.4-1.6c0.1-0.8,0.2-1.6,0.2-2.4
	C28.2,16.1,28.2,11.7,28.2,7.2 M20.6,11.9c0,2.2,0,4.5,0,6.7c0,0.5-0.1,1-0.3,1.4c-0.3,0.7-0.9,1.1-1.6,1.3
	c-0.4,0.1-0.8,0.2-1.3,0.2c-1.1,0.1-2.1-0.7-2.3-1.8c-0.2-0.9,0.3-1.9,1.2-2.4c0.4-0.2,0.8-0.3,1.2-0.4c0.4-0.1,0.9-0.2,1.3-0.3
	c0.3-0.1,0.5-0.3,0.6-0.6c0-0.1,0-0.2,0-0.2c0-2.1,0-4.3,0-6.4c0-0.1,0-0.1,0-0.2c0-0.2-0.2-0.3-0.4-0.3c-0.2,0-0.4,0-0.6,0.1
	c-0.9,0.2-1.8,0.4-2.7,0.5c-0.9,0.2-1.8,0.4-2.7,0.6c-0.5,0.1-1.1,0.2-1.6,0.3c0,0,0,0-0.1,0c-0.3,0.1-0.4,0.2-0.5,0.6
	c0,0.1,0,0.1,0,0.2c0,3.1,0,6.1,0,9.2c0,0.5-0.1,1-0.3,1.4c-0.3,0.8-0.9,1.2-1.7,1.5c-0.4,0.1-0.8,0.2-1.3,0.2
	c-1.1,0-2.1-0.7-2.3-1.8c-0.2-1,0.3-2,1.4-2.4C7,19.1,7.5,19,7.9,18.9c0.3-0.1,0.7-0.1,1-0.2c0.4-0.1,0.7-0.4,0.7-0.8
	c0-0.1,0-0.1,0-0.2c0-3.5,0-7,0-10.4c0-0.1,0-0.3,0-0.4c0.1-0.3,0.3-0.5,0.6-0.6C11,6.1,11.3,6,11.6,6c0.9-0.2,1.7-0.3,2.6-0.5
	C15.1,5.3,16,5.1,16.9,5c0.8-0.2,1.6-0.3,2.4-0.5c0.3-0.1,0.5-0.1,0.8-0.1c0.4,0,0.6,0.2,0.7,0.6c0,0.1,0,0.2,0,0.3
	C20.6,7.4,20.6,9.6,20.6,11.9L20.6,11.9z"/>
</svg>
